<svg xmlns="http://www.w3.org/2000/svg" viewBox="-17.5 0.0 927.5 770.0" width="928" height="770">
<defs>
  <style>
    @font-face {
      font-family: 'Virgil';
      src: url('https://excalidraw.com/Virgil.woff2');
    }
    @font-face {
      font-family: 'Cascadia';
      src: url('https://excalidraw.com/Cascadia.woff2');
    }
    @font-face {
      font-family: 'Assistant';
      src: url('https://fonts.gstatic.com/s/assistant/v19/2sDcZGJYnIjSi6H75xkZZE1I0yCmYzzUtuZZEA.woff2');
    }
  </style>
</defs>
<rect x="-17.5" y="0.0" width="927.5" height="770.0" fill="#ffffff" />
<rect x="350" y="20" width="200" height="70" rx="32" ry="32" fill="#ffec99" stroke="#f08c00" stroke-width="2"  opacity="1.0" />
<text x="452.75" y="47.00" font-size="20" font-family="Virgil, Arial, sans-serif" fill="#000000" text-anchor="middle" opacity="1.0">USER SENDS</text>
<text x="452.75" y="75.00" font-size="20" font-family="Virgil, Arial, sans-serif" fill="#000000" text-anchor="middle" opacity="1.0">QUERY</text>
<path d="M 450.00,90.00 L 450.00,140.00" fill="none" stroke="#000000" stroke-width="2"  />
<polygon points="450.00,140.00 446.00,130.00 454.00,130.00" fill="#000000" />
<rect x="320" y="140" width="260" height="80" rx="32" ry="32" fill="#a5d8ff" stroke="#1971c2" stroke-width="2"  opacity="1.0" />
<text x="450.00" y="173.00" font-size="20" font-family="Virgil, Arial, sans-serif" fill="#000000" text-anchor="middle" opacity="1.0">EMBED QUERY</text>
<text x="450.00" y="195.00" font-size="14" font-family="Virgil, Arial, sans-serif" fill="#1971c2" text-anchor="middle" opacity="1.0">Databricks BGE Large EN</text>
<path d="M 450.00,220.00 L 450.00,270.00" fill="none" stroke="#000000" stroke-width="2"  />
<polygon points="450.00,270.00 446.00,260.00 454.00,260.00" fill="#000000" />
<text x="450.00" y="336.00" font-size="20" font-family="Virgil, Arial, sans-serif" fill="#000000" text-anchor="middle" opacity="1.0">SIMILARITY ≥ 0.90?</text>
<text x="450.00" y="410.00" font-size="13" font-family="Virgil, Arial, sans-serif" fill="#868e96" text-anchor="middle" opacity="1.0">threshold configurable via .env</text>
<path d="M 315.00,330.00 L 120.00,330.00 L 120.00,440.00" fill="none" stroke="#2f9e44" stroke-width="2"  />
<polygon points="120.00,440.00 116.00,430.00 124.00,430.00" fill="#2f9e44" />
<text x="185.00" y="323.00" font-size="18" font-family="Virgil, Arial, sans-serif" fill="#2f9e44" text-anchor="middle" opacity="1.0">YES</text>
<rect x="21.875" y="443.125" width="210" height="141.25000000000003" rx="32" ry="32" fill="#b2f2bb" stroke="#2f9e44" stroke-width="2"  opacity="1.0" />
<text x="124.69" y="483.50" font-size="18" font-family="Virgil, Arial, sans-serif" fill="#000000" text-anchor="middle" opacity="1.0">RETURN CACHED</text>
<text x="124.69" y="509.50" font-size="18" font-family="Virgil, Arial, sans-serif" fill="#000000" text-anchor="middle" opacity="1.0">ANSWER</text>
<text x="125.00" y="544.50" font-size="14" font-family="Virgil, Arial, sans-serif" fill="#2f9e44" text-anchor="middle" opacity="1.0">~338ms</text>
<text x="125.00" y="564.50" font-size="14" font-family="Virgil, Arial, sans-serif" fill="#2f9e44" text-anchor="middle" opacity="1.0">0 LLM tokens</text>
<path d="M 585.00,330.00 L 780.00,330.00 L 780.00,440.00" fill="none" stroke="#e03131" stroke-width="2"  />
<polygon points="780.00,440.00 776.00,430.00 784.00,430.00" fill="#e03131" />
<text x="710.00" y="323.00" font-size="18" font-family="Virgil, Arial, sans-serif" fill="#e03131" text-anchor="middle" opacity="1.0">NO</text>
<rect x="670" y="440" width="220" height="90" rx="32" ry="32" fill="#ffc9c9" stroke="#e03131" stroke-width="2"  opacity="1.0" />
<text x="780.00" y="473.00" font-size="20" font-family="Virgil, Arial, sans-serif" fill="#000000" text-anchor="middle" opacity="1.0">INVOKE LLM</text>
<text x="780.00" y="496.00" font-size="13" font-family="Virgil, Arial, sans-serif" fill="#e03131" text-anchor="middle" opacity="1.0">Llama 3.3 70B | ~2,200ms</text>
<path d="M 780.00,530.00 L 780.00,570.00" fill="none" stroke="#000000" stroke-width="2"  />
<polygon points="780.00,570.00 776.00,560.00 784.00,560.00" fill="#000000" />
<rect x="670" y="570" width="220" height="70" rx="32" ry="32" fill="#a5d8ff" stroke="#1971c2" stroke-width="2"  opacity="1.0" />
<text x="780.00" y="601.00" font-size="18" font-family="Virgil, Arial, sans-serif" fill="#000000" text-anchor="middle" opacity="1.0">STORE IN CACHE</text>
<text x="780.00" y="622.00" font-size="13" font-family="Virgil, Arial, sans-serif" fill="#1971c2" text-anchor="middle" opacity="1.0">embedding + response in Redis</text>
<path d="M 780.00,640.00 L 780.00,680.00" fill="none" stroke="#000000" stroke-width="2"  />
<polygon points="780.00,680.00 776.00,670.00 784.00,670.00" fill="#000000" />
<rect x="670" y="680" width="220" height="70" rx="32" ry="32" fill="#e9ecef" stroke="#868e96" stroke-width="2"  opacity="1.0" />
<text x="780.00" y="722.00" font-size="20" font-family="Virgil, Arial, sans-serif" fill="#000000" text-anchor="middle" opacity="1.0">RETURN ANSWER</text>
</svg>